<mxfile host="Electron" agent="Mozilla/5.0 (Windows NT 10.0; Win64; x64) AppleWebKit/537.36 (KHTML, like Gecko) draw.io/26.2.2 Chrome/134.0.6998.178 Electron/35.1.2 Safari/537.36" version="26.2.2" pages="10">
  <diagram id="C5RBs43oDa-KdzZeNtuy" name="TestMakeAppointmentPage">
    <mxGraphModel dx="985" dy="586" grid="1" gridSize="10" guides="1" tooltips="1" connect="1" arrows="1" fold="1" page="1" pageScale="1" pageWidth="827" pageHeight="1169" math="0" shadow="0">
      <root>
        <mxCell id="WIyWlLk6GJQsqaUBKTNV-0" />
        <mxCell id="WIyWlLk6GJQsqaUBKTNV-1" parent="WIyWlLk6GJQsqaUBKTNV-0" />
        <mxCell id="GTFgo4q--Fh34BZYfwOy-2" value="" style="edgeStyle=orthogonalEdgeStyle;rounded=0;orthogonalLoop=1;jettySize=auto;html=1;" edge="1" parent="WIyWlLk6GJQsqaUBKTNV-1" source="GTFgo4q--Fh34BZYfwOy-0" target="GTFgo4q--Fh34BZYfwOy-1">
          <mxGeometry relative="1" as="geometry" />
        </mxCell>
        <mxCell id="GTFgo4q--Fh34BZYfwOy-0" value="" style="ellipse;whiteSpace=wrap;html=1;aspect=fixed;fillColor=#d5e8d4;strokeColor=#82b366;" vertex="1" parent="WIyWlLk6GJQsqaUBKTNV-1">
          <mxGeometry x="310" y="40" width="20" height="20" as="geometry" />
        </mxCell>
        <mxCell id="GTFgo4q--Fh34BZYfwOy-4" value="" style="edgeStyle=orthogonalEdgeStyle;rounded=0;orthogonalLoop=1;jettySize=auto;html=1;" edge="1" parent="WIyWlLk6GJQsqaUBKTNV-1" source="GTFgo4q--Fh34BZYfwOy-1" target="GTFgo4q--Fh34BZYfwOy-3">
          <mxGeometry relative="1" as="geometry" />
        </mxCell>
        <mxCell id="GTFgo4q--Fh34BZYfwOy-1" value="facility,&amp;nbsp;&lt;div&gt;hospital_readmission,&lt;div&gt;program,&lt;/div&gt;&lt;div&gt;date,&lt;/div&gt;&lt;div&gt;comment&lt;/div&gt;&lt;/div&gt;" style="shape=parallelogram;perimeter=parallelogramPerimeter;whiteSpace=wrap;html=1;fixedSize=1;" vertex="1" parent="WIyWlLk6GJQsqaUBKTNV-1">
          <mxGeometry x="220" y="90" width="200" height="90" as="geometry" />
        </mxCell>
        <mxCell id="GTFgo4q--Fh34BZYfwOy-6" value="" style="edgeStyle=orthogonalEdgeStyle;rounded=0;orthogonalLoop=1;jettySize=auto;html=1;" edge="1" parent="WIyWlLk6GJQsqaUBKTNV-1" source="GTFgo4q--Fh34BZYfwOy-3" target="GTFgo4q--Fh34BZYfwOy-5">
          <mxGeometry relative="1" as="geometry" />
        </mxCell>
        <UserObject label="Login account" link="data:page/id,IuBa7UGZ8iJi7jEk5E_o" id="GTFgo4q--Fh34BZYfwOy-3">
          <mxCell style="whiteSpace=wrap;html=1;" vertex="1" parent="WIyWlLk6GJQsqaUBKTNV-1">
            <mxGeometry x="260" y="230" width="120" height="50" as="geometry" />
          </mxCell>
        </UserObject>
        <mxCell id="Mv3k48gnI14Ivi9017X4-3" value="" style="edgeStyle=orthogonalEdgeStyle;rounded=0;orthogonalLoop=1;jettySize=auto;html=1;" edge="1" parent="WIyWlLk6GJQsqaUBKTNV-1" source="GTFgo4q--Fh34BZYfwOy-5" target="Mv3k48gnI14Ivi9017X4-2">
          <mxGeometry relative="1" as="geometry" />
        </mxCell>
        <UserObject label="Make appointment" link="data:page/id,aPnmK54rlTKUwx1mLwj4" id="GTFgo4q--Fh34BZYfwOy-5">
          <mxCell style="whiteSpace=wrap;html=1;" vertex="1" parent="WIyWlLk6GJQsqaUBKTNV-1">
            <mxGeometry x="260" y="320" width="120" height="60" as="geometry" />
          </mxCell>
        </UserObject>
        <mxCell id="GTFgo4q--Fh34BZYfwOy-10" value="" style="edgeStyle=orthogonalEdgeStyle;rounded=0;orthogonalLoop=1;jettySize=auto;html=1;entryX=0.5;entryY=0;entryDx=0;entryDy=0;" edge="1" parent="WIyWlLk6GJQsqaUBKTNV-1" source="GTFgo4q--Fh34BZYfwOy-7" target="GTFgo4q--Fh34BZYfwOy-11">
          <mxGeometry relative="1" as="geometry">
            <mxPoint x="320.5" y="690" as="targetPoint" />
          </mxGeometry>
        </mxCell>
        <UserObject label="Verify appointment is correct" link="data:page/id,1OFj_Y3_aHGQgcxev5W_" id="GTFgo4q--Fh34BZYfwOy-7">
          <mxCell style="whiteSpace=wrap;html=1;" vertex="1" parent="WIyWlLk6GJQsqaUBKTNV-1">
            <mxGeometry x="236.5" y="550" width="167" height="50" as="geometry" />
          </mxCell>
        </UserObject>
        <mxCell id="GTFgo4q--Fh34BZYfwOy-11" value="" style="ellipse;whiteSpace=wrap;html=1;aspect=fixed;fillColor=#f8cecc;strokeColor=#b85450;" vertex="1" parent="WIyWlLk6GJQsqaUBKTNV-1">
          <mxGeometry x="310.5" y="650" width="20" height="20" as="geometry" />
        </mxCell>
        <mxCell id="Mv3k48gnI14Ivi9017X4-4" style="edgeStyle=orthogonalEdgeStyle;rounded=0;orthogonalLoop=1;jettySize=auto;html=1;exitX=0.5;exitY=1;exitDx=0;exitDy=0;" edge="1" parent="WIyWlLk6GJQsqaUBKTNV-1" source="Mv3k48gnI14Ivi9017X4-2" target="GTFgo4q--Fh34BZYfwOy-7">
          <mxGeometry relative="1" as="geometry" />
        </mxCell>
        <mxCell id="Mv3k48gnI14Ivi9017X4-11" value="No" style="edgeLabel;html=1;align=center;verticalAlign=middle;resizable=0;points=[];" vertex="1" connectable="0" parent="Mv3k48gnI14Ivi9017X4-4">
          <mxGeometry x="-0.1641" y="1" relative="1" as="geometry">
            <mxPoint as="offset" />
          </mxGeometry>
        </mxCell>
        <mxCell id="Mv3k48gnI14Ivi9017X4-8" value="" style="edgeStyle=orthogonalEdgeStyle;rounded=0;orthogonalLoop=1;jettySize=auto;html=1;" edge="1" parent="WIyWlLk6GJQsqaUBKTNV-1" source="Mv3k48gnI14Ivi9017X4-2" target="Mv3k48gnI14Ivi9017X4-7">
          <mxGeometry relative="1" as="geometry" />
        </mxCell>
        <mxCell id="Mv3k48gnI14Ivi9017X4-10" value="Yes" style="edgeLabel;html=1;align=center;verticalAlign=middle;resizable=0;points=[];" vertex="1" connectable="0" parent="Mv3k48gnI14Ivi9017X4-8">
          <mxGeometry x="0.066" y="-1" relative="1" as="geometry">
            <mxPoint as="offset" />
          </mxGeometry>
        </mxCell>
        <mxCell id="Mv3k48gnI14Ivi9017X4-2" value="date == Empty" style="rhombus;whiteSpace=wrap;html=1;" vertex="1" parent="WIyWlLk6GJQsqaUBKTNV-1">
          <mxGeometry x="233" y="420" width="174" height="80" as="geometry" />
        </mxCell>
        <mxCell id="Mv3k48gnI14Ivi9017X4-9" style="edgeStyle=orthogonalEdgeStyle;rounded=0;orthogonalLoop=1;jettySize=auto;html=1;exitX=0.5;exitY=1;exitDx=0;exitDy=0;" edge="1" parent="WIyWlLk6GJQsqaUBKTNV-1" source="Mv3k48gnI14Ivi9017X4-7">
          <mxGeometry relative="1" as="geometry">
            <mxPoint x="320" y="630" as="targetPoint" />
            <Array as="points">
              <mxPoint x="570" y="630" />
            </Array>
          </mxGeometry>
        </mxCell>
        <mxCell id="Mv3k48gnI14Ivi9017X4-7" value="Date Picker appears" style="whiteSpace=wrap;html=1;" vertex="1" parent="WIyWlLk6GJQsqaUBKTNV-1">
          <mxGeometry x="510" y="430" width="120" height="60" as="geometry" />
        </mxCell>
      </root>
    </mxGraphModel>
  </diagram>
  <diagram id="IuBa7UGZ8iJi7jEk5E_o" name="Login account">
    <mxGraphModel dx="1360" dy="809" grid="1" gridSize="10" guides="1" tooltips="1" connect="1" arrows="1" fold="1" page="1" pageScale="1" pageWidth="850" pageHeight="1100" math="0" shadow="0">
      <root>
        <mxCell id="0" />
        <mxCell id="1" parent="0" />
        <mxCell id="qeBQL-q7JdQ9q6y19cUs-16" value="Login account" style="swimlane;" vertex="1" parent="1">
          <mxGeometry x="220" y="100" width="360" height="740" as="geometry" />
        </mxCell>
        <mxCell id="qeBQL-q7JdQ9q6y19cUs-4" value="" style="edgeStyle=orthogonalEdgeStyle;rounded=0;orthogonalLoop=1;jettySize=auto;html=1;entryX=0.5;entryY=0;entryDx=0;entryDy=0;" edge="1" parent="qeBQL-q7JdQ9q6y19cUs-16" source="qeBQL-q7JdQ9q6y19cUs-1" target="qeBQL-q7JdQ9q6y19cUs-17">
          <mxGeometry relative="1" as="geometry">
            <mxPoint x="190" y="80" as="targetPoint" />
          </mxGeometry>
        </mxCell>
        <mxCell id="qeBQL-q7JdQ9q6y19cUs-1" value="" style="ellipse;whiteSpace=wrap;html=1;aspect=fixed;fillColor=#d5e8d4;strokeColor=#82b366;" vertex="1" parent="qeBQL-q7JdQ9q6y19cUs-16">
          <mxGeometry x="180" y="50" width="20" height="20" as="geometry" />
        </mxCell>
        <mxCell id="qeBQL-q7JdQ9q6y19cUs-7" value="Input &quot;John Doe&quot; into Username text box" style="rounded=0;whiteSpace=wrap;html=1;" vertex="1" parent="qeBQL-q7JdQ9q6y19cUs-16">
          <mxGeometry x="120" y="370" width="140" height="40" as="geometry" />
        </mxCell>
        <mxCell id="qeBQL-q7JdQ9q6y19cUs-8" value="" style="edgeStyle=orthogonalEdgeStyle;rounded=0;orthogonalLoop=1;jettySize=auto;html=1;entryX=0.5;entryY=0;entryDx=0;entryDy=0;exitX=0.5;exitY=1;exitDx=0;exitDy=0;" edge="1" parent="qeBQL-q7JdQ9q6y19cUs-16" source="qeBQL-q7JdQ9q6y19cUs-7" target="qeBQL-q7JdQ9q6y19cUs-9">
          <mxGeometry relative="1" as="geometry">
            <mxPoint x="189.3499999999999" y="510" as="targetPoint" />
            <mxPoint x="190" y="480" as="sourcePoint" />
          </mxGeometry>
        </mxCell>
        <mxCell id="qeBQL-q7JdQ9q6y19cUs-9" value="Input &quot;ThisIsNotAPassword&quot; into Password text box" style="rounded=0;whiteSpace=wrap;html=1;" vertex="1" parent="qeBQL-q7JdQ9q6y19cUs-16">
          <mxGeometry x="80" y="450" width="220" height="50" as="geometry" />
        </mxCell>
        <mxCell id="qeBQL-q7JdQ9q6y19cUs-13" value="" style="edgeStyle=orthogonalEdgeStyle;rounded=0;orthogonalLoop=1;jettySize=auto;html=1;" edge="1" parent="qeBQL-q7JdQ9q6y19cUs-16" source="qeBQL-q7JdQ9q6y19cUs-10" target="qeBQL-q7JdQ9q6y19cUs-12">
          <mxGeometry relative="1" as="geometry" />
        </mxCell>
        <mxCell id="qeBQL-q7JdQ9q6y19cUs-10" value="Click Login button" style="rounded=0;whiteSpace=wrap;html=1;" vertex="1" parent="qeBQL-q7JdQ9q6y19cUs-16">
          <mxGeometry x="130" y="530" width="120" height="40" as="geometry" />
        </mxCell>
        <mxCell id="qeBQL-q7JdQ9q6y19cUs-11" value="" style="endArrow=classic;html=1;rounded=0;exitX=0.5;exitY=1;exitDx=0;exitDy=0;entryX=0.5;entryY=0;entryDx=0;entryDy=0;" edge="1" parent="qeBQL-q7JdQ9q6y19cUs-16" source="qeBQL-q7JdQ9q6y19cUs-9" target="qeBQL-q7JdQ9q6y19cUs-10">
          <mxGeometry width="50" height="50" relative="1" as="geometry">
            <mxPoint x="180" y="490" as="sourcePoint" />
            <mxPoint x="230" y="440" as="targetPoint" />
          </mxGeometry>
        </mxCell>
        <mxCell id="qeBQL-q7JdQ9q6y19cUs-15" style="edgeStyle=orthogonalEdgeStyle;rounded=0;orthogonalLoop=1;jettySize=auto;html=1;exitX=0.5;exitY=1;exitDx=0;exitDy=0;entryX=0.5;entryY=0;entryDx=0;entryDy=0;" edge="1" parent="qeBQL-q7JdQ9q6y19cUs-16" source="qeBQL-q7JdQ9q6y19cUs-12" target="qeBQL-q7JdQ9q6y19cUs-14">
          <mxGeometry relative="1" as="geometry" />
        </mxCell>
        <mxCell id="qeBQL-q7JdQ9q6y19cUs-12" value="Wait until Book Appointment button&lt;div&gt;&amp;nbsp;is visible&lt;/div&gt;" style="whiteSpace=wrap;html=1;rounded=0;" vertex="1" parent="qeBQL-q7JdQ9q6y19cUs-16">
          <mxGeometry x="77.5" y="600" width="225" height="70" as="geometry" />
        </mxCell>
        <mxCell id="qeBQL-q7JdQ9q6y19cUs-14" value="" style="ellipse;whiteSpace=wrap;html=1;aspect=fixed;fillColor=#f8cecc;strokeColor=#b85450;" vertex="1" parent="qeBQL-q7JdQ9q6y19cUs-16">
          <mxGeometry x="180" y="690" width="20" height="20" as="geometry" />
        </mxCell>
        <mxCell id="qeBQL-q7JdQ9q6y19cUs-17" value="Open Browser" style="rounded=0;whiteSpace=wrap;html=1;" vertex="1" parent="qeBQL-q7JdQ9q6y19cUs-16">
          <mxGeometry x="140" y="100" width="100" height="30" as="geometry" />
        </mxCell>
        <mxCell id="qeBQL-q7JdQ9q6y19cUs-18" value="" style="edgeStyle=orthogonalEdgeStyle;rounded=0;orthogonalLoop=1;jettySize=auto;html=1;entryX=0.5;entryY=0;entryDx=0;entryDy=0;" edge="1" parent="qeBQL-q7JdQ9q6y19cUs-16" target="qeBQL-q7JdQ9q6y19cUs-19">
          <mxGeometry relative="1" as="geometry">
            <mxPoint x="189.3499999999999" y="160" as="targetPoint" />
            <mxPoint x="190" y="130" as="sourcePoint" />
          </mxGeometry>
        </mxCell>
        <mxCell id="qeBQL-q7JdQ9q6y19cUs-19" value="Click Menu button" style="rounded=0;whiteSpace=wrap;html=1;" vertex="1" parent="qeBQL-q7JdQ9q6y19cUs-16">
          <mxGeometry x="120" y="160" width="140" height="30" as="geometry" />
        </mxCell>
        <mxCell id="qeBQL-q7JdQ9q6y19cUs-20" value="" style="edgeStyle=orthogonalEdgeStyle;rounded=0;orthogonalLoop=1;jettySize=auto;html=1;entryX=0.5;entryY=0;entryDx=0;entryDy=0;exitX=0.5;exitY=1;exitDx=0;exitDy=0;" edge="1" parent="qeBQL-q7JdQ9q6y19cUs-16" source="qeBQL-q7JdQ9q6y19cUs-19" target="qeBQL-q7JdQ9q6y19cUs-21">
          <mxGeometry relative="1" as="geometry">
            <mxPoint x="189.3499999999999" y="220" as="targetPoint" />
            <mxPoint x="190" y="190" as="sourcePoint" />
          </mxGeometry>
        </mxCell>
        <mxCell id="qeBQL-q7JdQ9q6y19cUs-21" value="Select Login" style="rounded=0;whiteSpace=wrap;html=1;" vertex="1" parent="qeBQL-q7JdQ9q6y19cUs-16">
          <mxGeometry x="125" y="220" width="130" height="30" as="geometry" />
        </mxCell>
        <mxCell id="qeBQL-q7JdQ9q6y19cUs-24" style="edgeStyle=orthogonalEdgeStyle;rounded=0;orthogonalLoop=1;jettySize=auto;html=1;exitX=0.5;exitY=1;exitDx=0;exitDy=0;entryX=0.5;entryY=0;entryDx=0;entryDy=0;" edge="1" parent="qeBQL-q7JdQ9q6y19cUs-16" source="qeBQL-q7JdQ9q6y19cUs-22" target="qeBQL-q7JdQ9q6y19cUs-7">
          <mxGeometry relative="1" as="geometry" />
        </mxCell>
        <mxCell id="qeBQL-q7JdQ9q6y19cUs-22" value="Wait until Login button is visible" style="rounded=0;whiteSpace=wrap;html=1;" vertex="1" parent="qeBQL-q7JdQ9q6y19cUs-16">
          <mxGeometry x="130" y="280" width="120" height="50" as="geometry" />
        </mxCell>
        <mxCell id="qeBQL-q7JdQ9q6y19cUs-23" value="" style="endArrow=classic;html=1;rounded=0;exitX=0.5;exitY=1;exitDx=0;exitDy=0;entryX=0.5;entryY=0;entryDx=0;entryDy=0;" edge="1" parent="qeBQL-q7JdQ9q6y19cUs-16" source="qeBQL-q7JdQ9q6y19cUs-21" target="qeBQL-q7JdQ9q6y19cUs-22">
          <mxGeometry width="50" height="50" relative="1" as="geometry">
            <mxPoint x="180" y="200" as="sourcePoint" />
            <mxPoint x="230" y="150" as="targetPoint" />
          </mxGeometry>
        </mxCell>
      </root>
    </mxGraphModel>
  </diagram>
  <diagram id="aPnmK54rlTKUwx1mLwj4" name="Make Appointment">
    <mxGraphModel dx="816" dy="485" grid="1" gridSize="10" guides="1" tooltips="1" connect="1" arrows="1" fold="1" page="1" pageScale="1" pageWidth="850" pageHeight="1100" math="0" shadow="0">
      <root>
        <mxCell id="0" />
        <mxCell id="1" parent="0" />
        <mxCell id="JdvvtlxnkJZOrePdH2Eu-2" value="Make Appointment" style="swimlane;whiteSpace=wrap;html=1;" vertex="1" parent="1">
          <mxGeometry x="150" y="110" width="450" height="790" as="geometry" />
        </mxCell>
        <mxCell id="oapa-ZgEJAQ7DpvSunPU-1" value="" style="edgeStyle=orthogonalEdgeStyle;rounded=0;orthogonalLoop=1;jettySize=auto;html=1;" edge="1" parent="JdvvtlxnkJZOrePdH2Eu-2" source="oapa-ZgEJAQ7DpvSunPU-2" target="oapa-ZgEJAQ7DpvSunPU-4">
          <mxGeometry relative="1" as="geometry" />
        </mxCell>
        <mxCell id="oapa-ZgEJAQ7DpvSunPU-2" value="" style="ellipse;whiteSpace=wrap;html=1;aspect=fixed;fillColor=#d5e8d4;strokeColor=#82b366;" vertex="1" parent="JdvvtlxnkJZOrePdH2Eu-2">
          <mxGeometry x="200" y="50" width="20" height="20" as="geometry" />
        </mxCell>
        <mxCell id="oapa-ZgEJAQ7DpvSunPU-6" value="" style="edgeStyle=orthogonalEdgeStyle;rounded=0;orthogonalLoop=1;jettySize=auto;html=1;" edge="1" parent="JdvvtlxnkJZOrePdH2Eu-2" source="oapa-ZgEJAQ7DpvSunPU-4" target="oapa-ZgEJAQ7DpvSunPU-5">
          <mxGeometry relative="1" as="geometry" />
        </mxCell>
        <mxCell id="oapa-ZgEJAQ7DpvSunPU-4" value="facility,&amp;nbsp;&lt;div&gt;readmission,&lt;div&gt;program,&lt;/div&gt;&lt;div&gt;date,&lt;/div&gt;&lt;div&gt;comment&lt;/div&gt;&lt;/div&gt;" style="shape=parallelogram;perimeter=parallelogramPerimeter;whiteSpace=wrap;html=1;fixedSize=1;" vertex="1" parent="JdvvtlxnkJZOrePdH2Eu-2">
          <mxGeometry x="110" y="100" width="200" height="90" as="geometry" />
        </mxCell>
        <mxCell id="oapa-ZgEJAQ7DpvSunPU-8" value="" style="edgeStyle=orthogonalEdgeStyle;rounded=0;orthogonalLoop=1;jettySize=auto;html=1;" edge="1" parent="JdvvtlxnkJZOrePdH2Eu-2" source="oapa-ZgEJAQ7DpvSunPU-5" target="oapa-ZgEJAQ7DpvSunPU-7">
          <mxGeometry relative="1" as="geometry" />
        </mxCell>
        <UserObject label="Select Facility" link="data:page/id,O7nmQaXvaQZ7ItQNMKGY" id="oapa-ZgEJAQ7DpvSunPU-5">
          <mxCell style="whiteSpace=wrap;html=1;" vertex="1" parent="JdvvtlxnkJZOrePdH2Eu-2">
            <mxGeometry x="150" y="220" width="120" height="60" as="geometry" />
          </mxCell>
        </UserObject>
        <mxCell id="oapa-ZgEJAQ7DpvSunPU-10" value="" style="edgeStyle=orthogonalEdgeStyle;rounded=0;orthogonalLoop=1;jettySize=auto;html=1;" edge="1" parent="JdvvtlxnkJZOrePdH2Eu-2" source="oapa-ZgEJAQ7DpvSunPU-7" target="oapa-ZgEJAQ7DpvSunPU-9">
          <mxGeometry relative="1" as="geometry" />
        </mxCell>
        <UserObject label="Select&amp;nbsp;&lt;div&gt;Hospital Readmission&lt;/div&gt;" link="data:page/id,dUgzQJB3YfVIS6TzEjuf" id="oapa-ZgEJAQ7DpvSunPU-7">
          <mxCell style="whiteSpace=wrap;html=1;" vertex="1" parent="JdvvtlxnkJZOrePdH2Eu-2">
            <mxGeometry x="150" y="310" width="120" height="60" as="geometry" />
          </mxCell>
        </UserObject>
        <mxCell id="oapa-ZgEJAQ7DpvSunPU-12" value="" style="edgeStyle=orthogonalEdgeStyle;rounded=0;orthogonalLoop=1;jettySize=auto;html=1;" edge="1" parent="JdvvtlxnkJZOrePdH2Eu-2" source="oapa-ZgEJAQ7DpvSunPU-9" target="oapa-ZgEJAQ7DpvSunPU-11">
          <mxGeometry relative="1" as="geometry" />
        </mxCell>
        <UserObject label="Select&amp;nbsp;&lt;div&gt;Healthcare Program&lt;/div&gt;" link="data:page/id,IoYA9ubJ53-jheuDzF21" id="oapa-ZgEJAQ7DpvSunPU-9">
          <mxCell style="whiteSpace=wrap;html=1;" vertex="1" parent="JdvvtlxnkJZOrePdH2Eu-2">
            <mxGeometry x="150" y="400" width="120" height="60" as="geometry" />
          </mxCell>
        </UserObject>
        <mxCell id="oapa-ZgEJAQ7DpvSunPU-14" value="" style="edgeStyle=orthogonalEdgeStyle;rounded=0;orthogonalLoop=1;jettySize=auto;html=1;" edge="1" parent="JdvvtlxnkJZOrePdH2Eu-2" source="oapa-ZgEJAQ7DpvSunPU-11" target="oapa-ZgEJAQ7DpvSunPU-13">
          <mxGeometry relative="1" as="geometry" />
        </mxCell>
        <UserObject label="Enter Visit Date" link="data:page/id,r6rl52BKpBEXIyafgl71" id="oapa-ZgEJAQ7DpvSunPU-11">
          <mxCell style="whiteSpace=wrap;html=1;" vertex="1" parent="JdvvtlxnkJZOrePdH2Eu-2">
            <mxGeometry x="150" y="480" width="120" height="60" as="geometry" />
          </mxCell>
        </UserObject>
        <mxCell id="wrS1bEA3G7ziMJ5LRtFA-14" style="edgeStyle=orthogonalEdgeStyle;rounded=0;orthogonalLoop=1;jettySize=auto;html=1;exitX=0.5;exitY=1;exitDx=0;exitDy=0;entryX=0.5;entryY=0;entryDx=0;entryDy=0;" edge="1" parent="JdvvtlxnkJZOrePdH2Eu-2" source="oapa-ZgEJAQ7DpvSunPU-13" target="oapa-ZgEJAQ7DpvSunPU-15">
          <mxGeometry relative="1" as="geometry" />
        </mxCell>
        <UserObject label="Enter Comment" link="data:page/id,r6rl52BKpBEXIyafgl71" id="oapa-ZgEJAQ7DpvSunPU-13">
          <mxCell style="whiteSpace=wrap;html=1;" vertex="1" parent="JdvvtlxnkJZOrePdH2Eu-2">
            <mxGeometry x="150" y="560" width="120" height="60" as="geometry" />
          </mxCell>
        </UserObject>
        <mxCell id="JdvvtlxnkJZOrePdH2Eu-1" style="edgeStyle=orthogonalEdgeStyle;rounded=0;orthogonalLoop=1;jettySize=auto;html=1;exitX=0.5;exitY=1;exitDx=0;exitDy=0;entryX=0.5;entryY=0;entryDx=0;entryDy=0;" edge="1" parent="JdvvtlxnkJZOrePdH2Eu-2" source="oapa-ZgEJAQ7DpvSunPU-15" target="oapa-ZgEJAQ7DpvSunPU-19">
          <mxGeometry relative="1" as="geometry" />
        </mxCell>
        <UserObject label="Click Make Appointment button" id="oapa-ZgEJAQ7DpvSunPU-15">
          <mxCell style="whiteSpace=wrap;html=1;" vertex="1" parent="JdvvtlxnkJZOrePdH2Eu-2">
            <mxGeometry x="149" y="640" width="120" height="60" as="geometry" />
          </mxCell>
        </UserObject>
        <mxCell id="oapa-ZgEJAQ7DpvSunPU-19" value="" style="ellipse;whiteSpace=wrap;html=1;aspect=fixed;fillColor=#f8cecc;strokeColor=#b85450;" vertex="1" parent="JdvvtlxnkJZOrePdH2Eu-2">
          <mxGeometry x="199" y="740" width="20" height="20" as="geometry" />
        </mxCell>
      </root>
    </mxGraphModel>
  </diagram>
  <diagram id="O7nmQaXvaQZ7ItQNMKGY" name="Select Facility">
    <mxGraphModel dx="1587" dy="943" grid="1" gridSize="10" guides="1" tooltips="1" connect="1" arrows="1" fold="1" page="1" pageScale="1" pageWidth="850" pageHeight="1100" math="0" shadow="0">
      <root>
        <mxCell id="0" />
        <mxCell id="1" parent="0" />
        <mxCell id="t4dSFKOxM5ATZfy8diON-32" value="Select Facility" style="swimlane;whiteSpace=wrap;html=1;" vertex="1" parent="1">
          <mxGeometry x="80" y="90" width="890" height="780" as="geometry" />
        </mxCell>
        <mxCell id="t4dSFKOxM5ATZfy8diON-2" value="" style="edgeStyle=orthogonalEdgeStyle;rounded=0;orthogonalLoop=1;jettySize=auto;html=1;" edge="1" parent="t4dSFKOxM5ATZfy8diON-32" source="mrQhjn9Mq9p77Ju324mK-1" target="t4dSFKOxM5ATZfy8diON-1">
          <mxGeometry relative="1" as="geometry" />
        </mxCell>
        <mxCell id="mrQhjn9Mq9p77Ju324mK-1" value="" style="ellipse;whiteSpace=wrap;html=1;aspect=fixed;fillColor=#d5e8d4;strokeColor=#82b366;" vertex="1" parent="t4dSFKOxM5ATZfy8diON-32">
          <mxGeometry x="156" y="50" width="20" height="20" as="geometry" />
        </mxCell>
        <mxCell id="KZQ1uTj-FqlWHDHZJTl8-2" value="" style="edgeStyle=orthogonalEdgeStyle;rounded=0;orthogonalLoop=1;jettySize=auto;html=1;" edge="1" parent="t4dSFKOxM5ATZfy8diON-32" source="t4dSFKOxM5ATZfy8diON-1" target="KZQ1uTj-FqlWHDHZJTl8-1">
          <mxGeometry relative="1" as="geometry" />
        </mxCell>
        <mxCell id="t4dSFKOxM5ATZfy8diON-1" value="facility" style="shape=parallelogram;perimeter=parallelogramPerimeter;whiteSpace=wrap;html=1;fixedSize=1;" vertex="1" parent="t4dSFKOxM5ATZfy8diON-32">
          <mxGeometry x="106" y="110" width="120" height="40" as="geometry" />
        </mxCell>
        <mxCell id="KZQ1uTj-FqlWHDHZJTl8-4" style="edgeStyle=orthogonalEdgeStyle;rounded=0;orthogonalLoop=1;jettySize=auto;html=1;exitX=1;exitY=0.5;exitDx=0;exitDy=0;entryX=0;entryY=0.5;entryDx=0;entryDy=0;" edge="1" parent="t4dSFKOxM5ATZfy8diON-32" source="t4dSFKOxM5ATZfy8diON-3" target="t4dSFKOxM5ATZfy8diON-5">
          <mxGeometry relative="1" as="geometry" />
        </mxCell>
        <mxCell id="KZQ1uTj-FqlWHDHZJTl8-9" value="No" style="edgeLabel;html=1;align=center;verticalAlign=middle;resizable=0;points=[];" vertex="1" connectable="0" parent="KZQ1uTj-FqlWHDHZJTl8-4">
          <mxGeometry x="-0.0985" y="1" relative="1" as="geometry">
            <mxPoint as="offset" />
          </mxGeometry>
        </mxCell>
        <mxCell id="KZQ1uTj-FqlWHDHZJTl8-11" value="" style="edgeStyle=orthogonalEdgeStyle;rounded=0;orthogonalLoop=1;jettySize=auto;html=1;" edge="1" parent="t4dSFKOxM5ATZfy8diON-32" source="t4dSFKOxM5ATZfy8diON-3" target="KZQ1uTj-FqlWHDHZJTl8-10">
          <mxGeometry relative="1" as="geometry" />
        </mxCell>
        <mxCell id="t4dSFKOxM5ATZfy8diON-3" value="facility == Tokyo" style="rhombus;whiteSpace=wrap;html=1;" vertex="1" parent="t4dSFKOxM5ATZfy8diON-32">
          <mxGeometry x="94" y="330" width="144" height="70" as="geometry" />
        </mxCell>
        <mxCell id="KZQ1uTj-FqlWHDHZJTl8-5" style="edgeStyle=orthogonalEdgeStyle;rounded=0;orthogonalLoop=1;jettySize=auto;html=1;exitX=1;exitY=0.5;exitDx=0;exitDy=0;entryX=0;entryY=0.5;entryDx=0;entryDy=0;" edge="1" parent="t4dSFKOxM5ATZfy8diON-32" source="t4dSFKOxM5ATZfy8diON-5" target="t4dSFKOxM5ATZfy8diON-6">
          <mxGeometry relative="1" as="geometry" />
        </mxCell>
        <mxCell id="KZQ1uTj-FqlWHDHZJTl8-8" value="No" style="edgeLabel;html=1;align=center;verticalAlign=middle;resizable=0;points=[];" vertex="1" connectable="0" parent="KZQ1uTj-FqlWHDHZJTl8-5">
          <mxGeometry x="-0.0958" y="1" relative="1" as="geometry">
            <mxPoint as="offset" />
          </mxGeometry>
        </mxCell>
        <mxCell id="KZQ1uTj-FqlWHDHZJTl8-14" style="edgeStyle=orthogonalEdgeStyle;rounded=0;orthogonalLoop=1;jettySize=auto;html=1;exitX=0.5;exitY=1;exitDx=0;exitDy=0;" edge="1" parent="t4dSFKOxM5ATZfy8diON-32" source="t4dSFKOxM5ATZfy8diON-5">
          <mxGeometry relative="1" as="geometry">
            <mxPoint x="395.66666666666697" y="480" as="targetPoint" />
          </mxGeometry>
        </mxCell>
        <mxCell id="t4dSFKOxM5ATZfy8diON-5" value="facility == Hongkong" style="rhombus;whiteSpace=wrap;html=1;" vertex="1" parent="t4dSFKOxM5ATZfy8diON-32">
          <mxGeometry x="324" y="330" width="144" height="70" as="geometry" />
        </mxCell>
        <mxCell id="KZQ1uTj-FqlWHDHZJTl8-6" style="edgeStyle=orthogonalEdgeStyle;rounded=0;orthogonalLoop=1;jettySize=auto;html=1;exitX=1;exitY=0.5;exitDx=0;exitDy=0;entryX=0.5;entryY=0;entryDx=0;entryDy=0;" edge="1" parent="t4dSFKOxM5ATZfy8diON-32" source="t4dSFKOxM5ATZfy8diON-6" target="t4dSFKOxM5ATZfy8diON-26">
          <mxGeometry relative="1" as="geometry" />
        </mxCell>
        <mxCell id="KZQ1uTj-FqlWHDHZJTl8-7" value="No" style="edgeLabel;html=1;align=center;verticalAlign=middle;resizable=0;points=[];" vertex="1" connectable="0" parent="KZQ1uTj-FqlWHDHZJTl8-6">
          <mxGeometry x="-0.1358" y="-1" relative="1" as="geometry">
            <mxPoint as="offset" />
          </mxGeometry>
        </mxCell>
        <mxCell id="KZQ1uTj-FqlWHDHZJTl8-15" style="edgeStyle=orthogonalEdgeStyle;rounded=0;orthogonalLoop=1;jettySize=auto;html=1;exitX=0.5;exitY=1;exitDx=0;exitDy=0;entryX=0.5;entryY=0;entryDx=0;entryDy=0;" edge="1" parent="t4dSFKOxM5ATZfy8diON-32" source="t4dSFKOxM5ATZfy8diON-6" target="KZQ1uTj-FqlWHDHZJTl8-13">
          <mxGeometry relative="1" as="geometry">
            <mxPoint x="615.666666666667" y="480" as="targetPoint" />
          </mxGeometry>
        </mxCell>
        <mxCell id="t4dSFKOxM5ATZfy8diON-6" value="facility == Seoul" style="rhombus;whiteSpace=wrap;html=1;" vertex="1" parent="t4dSFKOxM5ATZfy8diON-32">
          <mxGeometry x="544" y="330" width="144" height="70" as="geometry" />
        </mxCell>
        <mxCell id="t4dSFKOxM5ATZfy8diON-29" style="edgeStyle=orthogonalEdgeStyle;rounded=0;orthogonalLoop=1;jettySize=auto;html=1;exitX=0.5;exitY=1;exitDx=0;exitDy=0;" edge="1" parent="t4dSFKOxM5ATZfy8diON-32" source="t4dSFKOxM5ATZfy8diON-26">
          <mxGeometry relative="1" as="geometry">
            <mxPoint x="794" y="630" as="targetPoint" />
          </mxGeometry>
        </mxCell>
        <mxCell id="t4dSFKOxM5ATZfy8diON-26" value="Return Failed" style="rounded=0;whiteSpace=wrap;html=1;" vertex="1" parent="t4dSFKOxM5ATZfy8diON-32">
          <mxGeometry x="734" y="489" width="120" height="55" as="geometry" />
        </mxCell>
        <mxCell id="KZQ1uTj-FqlWHDHZJTl8-3" style="edgeStyle=orthogonalEdgeStyle;rounded=0;orthogonalLoop=1;jettySize=auto;html=1;exitX=0.5;exitY=1;exitDx=0;exitDy=0;entryX=0.5;entryY=0;entryDx=0;entryDy=0;" edge="1" parent="t4dSFKOxM5ATZfy8diON-32" source="KZQ1uTj-FqlWHDHZJTl8-1" target="t4dSFKOxM5ATZfy8diON-3">
          <mxGeometry relative="1" as="geometry" />
        </mxCell>
        <mxCell id="KZQ1uTj-FqlWHDHZJTl8-1" value="Click Facility Dropbox" style="whiteSpace=wrap;html=1;" vertex="1" parent="t4dSFKOxM5ATZfy8diON-32">
          <mxGeometry x="90" y="200" width="152" height="60" as="geometry" />
        </mxCell>
        <mxCell id="KZQ1uTj-FqlWHDHZJTl8-17" style="edgeStyle=orthogonalEdgeStyle;rounded=0;orthogonalLoop=1;jettySize=auto;html=1;exitX=0.5;exitY=1;exitDx=0;exitDy=0;entryX=0.5;entryY=0;entryDx=0;entryDy=0;" edge="1" parent="t4dSFKOxM5ATZfy8diON-32" source="KZQ1uTj-FqlWHDHZJTl8-10" target="KZQ1uTj-FqlWHDHZJTl8-16">
          <mxGeometry relative="1" as="geometry">
            <mxPoint x="166" y="650" as="targetPoint" />
          </mxGeometry>
        </mxCell>
        <mxCell id="KZQ1uTj-FqlWHDHZJTl8-10" value="Select Tokyo option" style="whiteSpace=wrap;html=1;" vertex="1" parent="t4dSFKOxM5ATZfy8diON-32">
          <mxGeometry x="106" y="485" width="120" height="60" as="geometry" />
        </mxCell>
        <mxCell id="KZQ1uTj-FqlWHDHZJTl8-18" style="edgeStyle=orthogonalEdgeStyle;rounded=0;orthogonalLoop=1;jettySize=auto;html=1;exitX=0.5;exitY=1;exitDx=0;exitDy=0;" edge="1" parent="t4dSFKOxM5ATZfy8diON-32" source="KZQ1uTj-FqlWHDHZJTl8-12">
          <mxGeometry relative="1" as="geometry">
            <mxPoint x="396" y="630" as="targetPoint" />
          </mxGeometry>
        </mxCell>
        <mxCell id="KZQ1uTj-FqlWHDHZJTl8-12" value="Select Hongkong option" style="whiteSpace=wrap;html=1;" vertex="1" parent="t4dSFKOxM5ATZfy8diON-32">
          <mxGeometry x="330" y="485" width="132" height="60" as="geometry" />
        </mxCell>
        <mxCell id="KZQ1uTj-FqlWHDHZJTl8-19" style="edgeStyle=orthogonalEdgeStyle;rounded=0;orthogonalLoop=1;jettySize=auto;html=1;exitX=0.5;exitY=1;exitDx=0;exitDy=0;" edge="1" parent="t4dSFKOxM5ATZfy8diON-32" source="KZQ1uTj-FqlWHDHZJTl8-13">
          <mxGeometry relative="1" as="geometry">
            <mxPoint x="616" y="630" as="targetPoint" />
          </mxGeometry>
        </mxCell>
        <mxCell id="KZQ1uTj-FqlWHDHZJTl8-13" value="Select Seoul option" style="whiteSpace=wrap;html=1;" vertex="1" parent="t4dSFKOxM5ATZfy8diON-32">
          <mxGeometry x="556" y="485" width="120" height="60" as="geometry" />
        </mxCell>
        <mxCell id="KZQ1uTj-FqlWHDHZJTl8-16" value="" style="ellipse;whiteSpace=wrap;html=1;aspect=fixed;fillColor=#f8cecc;strokeColor=#b85450;" vertex="1" parent="t4dSFKOxM5ATZfy8diON-32">
          <mxGeometry x="155" y="680" width="20" height="20" as="geometry" />
        </mxCell>
        <mxCell id="KZQ1uTj-FqlWHDHZJTl8-20" value="" style="endArrow=classic;html=1;rounded=0;" edge="1" parent="t4dSFKOxM5ATZfy8diON-32">
          <mxGeometry width="50" height="50" relative="1" as="geometry">
            <mxPoint x="794" y="630" as="sourcePoint" />
            <mxPoint x="164" y="630" as="targetPoint" />
          </mxGeometry>
        </mxCell>
      </root>
    </mxGraphModel>
  </diagram>
  <diagram id="dUgzQJB3YfVIS6TzEjuf" name="Select Hospital Readmission">
    <mxGraphModel dx="1190" dy="708" grid="1" gridSize="10" guides="1" tooltips="1" connect="1" arrows="1" fold="1" page="1" pageScale="1" pageWidth="850" pageHeight="1100" math="0" shadow="0">
      <root>
        <mxCell id="0" />
        <mxCell id="1" parent="0" />
        <mxCell id="_d2CMtH9zLwWzLSSapN9-22" value="Select Hospital Readmission" style="swimlane;whiteSpace=wrap;html=1;" vertex="1" parent="1">
          <mxGeometry x="170" y="170" width="530" height="560" as="geometry" />
        </mxCell>
        <mxCell id="_d2CMtH9zLwWzLSSapN9-1" value="" style="edgeStyle=orthogonalEdgeStyle;rounded=0;orthogonalLoop=1;jettySize=auto;html=1;" edge="1" parent="_d2CMtH9zLwWzLSSapN9-22" source="_d2CMtH9zLwWzLSSapN9-2" target="_d2CMtH9zLwWzLSSapN9-3">
          <mxGeometry relative="1" as="geometry" />
        </mxCell>
        <mxCell id="_d2CMtH9zLwWzLSSapN9-2" value="" style="ellipse;whiteSpace=wrap;html=1;aspect=fixed;fillColor=#d5e8d4;strokeColor=#82b366;" vertex="1" parent="_d2CMtH9zLwWzLSSapN9-22">
          <mxGeometry x="338" y="50" width="20" height="20" as="geometry" />
        </mxCell>
        <mxCell id="_d2CMtH9zLwWzLSSapN9-5" value="" style="edgeStyle=orthogonalEdgeStyle;rounded=0;orthogonalLoop=1;jettySize=auto;html=1;" edge="1" parent="_d2CMtH9zLwWzLSSapN9-22" source="_d2CMtH9zLwWzLSSapN9-3" target="_d2CMtH9zLwWzLSSapN9-4">
          <mxGeometry relative="1" as="geometry" />
        </mxCell>
        <mxCell id="_d2CMtH9zLwWzLSSapN9-3" value="readmission" style="shape=parallelogram;perimeter=parallelogramPerimeter;whiteSpace=wrap;html=1;fixedSize=1;" vertex="1" parent="_d2CMtH9zLwWzLSSapN9-22">
          <mxGeometry x="288" y="110" width="120" height="40" as="geometry" />
        </mxCell>
        <mxCell id="_d2CMtH9zLwWzLSSapN9-7" value="" style="edgeStyle=orthogonalEdgeStyle;rounded=0;orthogonalLoop=1;jettySize=auto;html=1;entryX=0.5;entryY=0;entryDx=0;entryDy=0;" edge="1" parent="_d2CMtH9zLwWzLSSapN9-22" source="_d2CMtH9zLwWzLSSapN9-4" target="_d2CMtH9zLwWzLSSapN9-8">
          <mxGeometry relative="1" as="geometry">
            <mxPoint x="349" y="320" as="targetPoint" />
          </mxGeometry>
        </mxCell>
        <mxCell id="_d2CMtH9zLwWzLSSapN9-19" value="No" style="edgeLabel;html=1;align=center;verticalAlign=middle;resizable=0;points=[];" vertex="1" connectable="0" parent="_d2CMtH9zLwWzLSSapN9-7">
          <mxGeometry x="-0.7427" relative="1" as="geometry">
            <mxPoint as="offset" />
          </mxGeometry>
        </mxCell>
        <mxCell id="_d2CMtH9zLwWzLSSapN9-16" value="" style="edgeStyle=orthogonalEdgeStyle;rounded=0;orthogonalLoop=1;jettySize=auto;html=1;" edge="1" parent="_d2CMtH9zLwWzLSSapN9-22" source="_d2CMtH9zLwWzLSSapN9-4" target="_d2CMtH9zLwWzLSSapN9-15">
          <mxGeometry relative="1" as="geometry" />
        </mxCell>
        <mxCell id="_d2CMtH9zLwWzLSSapN9-18" value="Yes" style="edgeLabel;html=1;align=center;verticalAlign=middle;resizable=0;points=[];" vertex="1" connectable="0" parent="_d2CMtH9zLwWzLSSapN9-16">
          <mxGeometry x="-0.2202" y="-2" relative="1" as="geometry">
            <mxPoint as="offset" />
          </mxGeometry>
        </mxCell>
        <mxCell id="_d2CMtH9zLwWzLSSapN9-4" value="readmission == Yes" style="rhombus;whiteSpace=wrap;html=1;" vertex="1" parent="_d2CMtH9zLwWzLSSapN9-22">
          <mxGeometry x="280" y="200" width="136" height="80" as="geometry" />
        </mxCell>
        <mxCell id="_d2CMtH9zLwWzLSSapN9-10" value="" style="edgeStyle=orthogonalEdgeStyle;rounded=0;orthogonalLoop=1;jettySize=auto;html=1;" edge="1" parent="_d2CMtH9zLwWzLSSapN9-22" source="_d2CMtH9zLwWzLSSapN9-8" target="_d2CMtH9zLwWzLSSapN9-9">
          <mxGeometry relative="1" as="geometry" />
        </mxCell>
        <mxCell id="_d2CMtH9zLwWzLSSapN9-20" value="No" style="edgeLabel;html=1;align=center;verticalAlign=middle;resizable=0;points=[];" vertex="1" connectable="0" parent="_d2CMtH9zLwWzLSSapN9-10">
          <mxGeometry x="0.2637" y="1" relative="1" as="geometry">
            <mxPoint as="offset" />
          </mxGeometry>
        </mxCell>
        <mxCell id="_d2CMtH9zLwWzLSSapN9-14" style="edgeStyle=orthogonalEdgeStyle;rounded=0;orthogonalLoop=1;jettySize=auto;html=1;exitX=1;exitY=0.5;exitDx=0;exitDy=0;entryX=1;entryY=0.5;entryDx=0;entryDy=0;" edge="1" parent="_d2CMtH9zLwWzLSSapN9-22" source="_d2CMtH9zLwWzLSSapN9-8" target="_d2CMtH9zLwWzLSSapN9-11">
          <mxGeometry relative="1" as="geometry">
            <Array as="points">
              <mxPoint x="482" y="350" />
              <mxPoint x="482" y="500" />
            </Array>
          </mxGeometry>
        </mxCell>
        <mxCell id="_d2CMtH9zLwWzLSSapN9-21" value="Yes" style="edgeLabel;html=1;align=center;verticalAlign=middle;resizable=0;points=[];" vertex="1" connectable="0" parent="_d2CMtH9zLwWzLSSapN9-14">
          <mxGeometry x="-0.2474" relative="1" as="geometry">
            <mxPoint as="offset" />
          </mxGeometry>
        </mxCell>
        <mxCell id="_d2CMtH9zLwWzLSSapN9-8" value="readmission == No" style="rhombus;whiteSpace=wrap;html=1;" vertex="1" parent="_d2CMtH9zLwWzLSSapN9-22">
          <mxGeometry x="280" y="310" width="136" height="80" as="geometry" />
        </mxCell>
        <mxCell id="_d2CMtH9zLwWzLSSapN9-12" style="edgeStyle=orthogonalEdgeStyle;rounded=0;orthogonalLoop=1;jettySize=auto;html=1;exitX=0.5;exitY=1;exitDx=0;exitDy=0;entryX=0.5;entryY=0;entryDx=0;entryDy=0;" edge="1" parent="_d2CMtH9zLwWzLSSapN9-22" source="_d2CMtH9zLwWzLSSapN9-9" target="_d2CMtH9zLwWzLSSapN9-11">
          <mxGeometry relative="1" as="geometry" />
        </mxCell>
        <mxCell id="_d2CMtH9zLwWzLSSapN9-9" value="Return Failed" style="whiteSpace=wrap;html=1;" vertex="1" parent="_d2CMtH9zLwWzLSSapN9-22">
          <mxGeometry x="288" y="420" width="120" height="40" as="geometry" />
        </mxCell>
        <mxCell id="_d2CMtH9zLwWzLSSapN9-11" value="" style="ellipse;whiteSpace=wrap;html=1;aspect=fixed;fillColor=#f8cecc;strokeColor=#b85450;" vertex="1" parent="_d2CMtH9zLwWzLSSapN9-22">
          <mxGeometry x="338" y="490" width="20" height="20" as="geometry" />
        </mxCell>
        <mxCell id="_d2CMtH9zLwWzLSSapN9-17" style="edgeStyle=orthogonalEdgeStyle;rounded=0;orthogonalLoop=1;jettySize=auto;html=1;exitX=0.5;exitY=1;exitDx=0;exitDy=0;entryX=0;entryY=0.5;entryDx=0;entryDy=0;" edge="1" parent="_d2CMtH9zLwWzLSSapN9-22" source="_d2CMtH9zLwWzLSSapN9-15" target="_d2CMtH9zLwWzLSSapN9-11">
          <mxGeometry relative="1" as="geometry" />
        </mxCell>
        <mxCell id="_d2CMtH9zLwWzLSSapN9-15" value="Check Hospital&lt;div&gt;Readmission checkbox&lt;/div&gt;" style="whiteSpace=wrap;html=1;" vertex="1" parent="_d2CMtH9zLwWzLSSapN9-22">
          <mxGeometry x="30" y="210" width="162" height="60" as="geometry" />
        </mxCell>
      </root>
    </mxGraphModel>
  </diagram>
  <diagram id="IoYA9ubJ53-jheuDzF21" name="Select Healthcare Program">
    <mxGraphModel dx="1428" dy="849" grid="1" gridSize="10" guides="1" tooltips="1" connect="1" arrows="1" fold="1" page="1" pageScale="1" pageWidth="850" pageHeight="1100" math="0" shadow="0">
      <root>
        <mxCell id="0" />
        <mxCell id="1" parent="0" />
        <mxCell id="EbevbRiIdhzifkjhd-jo-12" value="Select Healthcare Program" style="swimlane;whiteSpace=wrap;html=1;" vertex="1" parent="1">
          <mxGeometry x="110" y="240" width="870" height="490" as="geometry" />
        </mxCell>
        <mxCell id="QBf7V6UrVG0nwe6GnjbZ-3" value="" style="edgeStyle=orthogonalEdgeStyle;rounded=0;orthogonalLoop=1;jettySize=auto;html=1;" edge="1" parent="EbevbRiIdhzifkjhd-jo-12" source="QBf7V6UrVG0nwe6GnjbZ-1" target="QBf7V6UrVG0nwe6GnjbZ-2">
          <mxGeometry relative="1" as="geometry" />
        </mxCell>
        <mxCell id="QBf7V6UrVG0nwe6GnjbZ-1" value="" style="ellipse;whiteSpace=wrap;html=1;aspect=fixed;fillColor=#d5e8d4;strokeColor=#82b366;" vertex="1" parent="EbevbRiIdhzifkjhd-jo-12">
          <mxGeometry x="120" y="50" width="20" height="20" as="geometry" />
        </mxCell>
        <mxCell id="QBf7V6UrVG0nwe6GnjbZ-7" value="" style="edgeStyle=orthogonalEdgeStyle;rounded=0;orthogonalLoop=1;jettySize=auto;html=1;" edge="1" parent="EbevbRiIdhzifkjhd-jo-12" source="QBf7V6UrVG0nwe6GnjbZ-2" target="QBf7V6UrVG0nwe6GnjbZ-6">
          <mxGeometry relative="1" as="geometry" />
        </mxCell>
        <mxCell id="QBf7V6UrVG0nwe6GnjbZ-2" value="program" style="shape=parallelogram;perimeter=parallelogramPerimeter;whiteSpace=wrap;html=1;fixedSize=1;" vertex="1" parent="EbevbRiIdhzifkjhd-jo-12">
          <mxGeometry x="70" y="100" width="120" height="40" as="geometry" />
        </mxCell>
        <mxCell id="QBf7V6UrVG0nwe6GnjbZ-10" value="" style="edgeStyle=orthogonalEdgeStyle;rounded=0;orthogonalLoop=1;jettySize=auto;html=1;" edge="1" parent="EbevbRiIdhzifkjhd-jo-12" source="QBf7V6UrVG0nwe6GnjbZ-6" target="QBf7V6UrVG0nwe6GnjbZ-9">
          <mxGeometry relative="1" as="geometry" />
        </mxCell>
        <mxCell id="QBf7V6UrVG0nwe6GnjbZ-22" value="Yes" style="edgeLabel;html=1;align=center;verticalAlign=middle;resizable=0;points=[];" vertex="1" connectable="0" parent="QBf7V6UrVG0nwe6GnjbZ-10">
          <mxGeometry x="-0.4325" y="-2" relative="1" as="geometry">
            <mxPoint as="offset" />
          </mxGeometry>
        </mxCell>
        <mxCell id="QBf7V6UrVG0nwe6GnjbZ-13" style="edgeStyle=orthogonalEdgeStyle;rounded=0;orthogonalLoop=1;jettySize=auto;html=1;exitX=1;exitY=0.5;exitDx=0;exitDy=0;entryX=0;entryY=0.5;entryDx=0;entryDy=0;" edge="1" parent="EbevbRiIdhzifkjhd-jo-12" source="QBf7V6UrVG0nwe6GnjbZ-6" target="QBf7V6UrVG0nwe6GnjbZ-8">
          <mxGeometry relative="1" as="geometry" />
        </mxCell>
        <mxCell id="QBf7V6UrVG0nwe6GnjbZ-25" value="No" style="edgeLabel;html=1;align=center;verticalAlign=middle;resizable=0;points=[];" vertex="1" connectable="0" parent="QBf7V6UrVG0nwe6GnjbZ-13">
          <mxGeometry x="-0.2701" relative="1" as="geometry">
            <mxPoint as="offset" />
          </mxGeometry>
        </mxCell>
        <mxCell id="QBf7V6UrVG0nwe6GnjbZ-6" value="program == Medicare" style="rhombus;whiteSpace=wrap;html=1;" vertex="1" parent="EbevbRiIdhzifkjhd-jo-12">
          <mxGeometry x="50" y="180" width="160" height="70" as="geometry" />
        </mxCell>
        <mxCell id="QBf7V6UrVG0nwe6GnjbZ-12" value="" style="edgeStyle=orthogonalEdgeStyle;rounded=0;orthogonalLoop=1;jettySize=auto;html=1;" edge="1" parent="EbevbRiIdhzifkjhd-jo-12" source="QBf7V6UrVG0nwe6GnjbZ-8" target="QBf7V6UrVG0nwe6GnjbZ-11">
          <mxGeometry relative="1" as="geometry" />
        </mxCell>
        <mxCell id="QBf7V6UrVG0nwe6GnjbZ-23" value="Yes" style="edgeLabel;html=1;align=center;verticalAlign=middle;resizable=0;points=[];" vertex="1" connectable="0" parent="QBf7V6UrVG0nwe6GnjbZ-12">
          <mxGeometry x="-0.5113" y="1" relative="1" as="geometry">
            <mxPoint as="offset" />
          </mxGeometry>
        </mxCell>
        <mxCell id="EbevbRiIdhzifkjhd-jo-5" style="edgeStyle=orthogonalEdgeStyle;rounded=0;orthogonalLoop=1;jettySize=auto;html=1;exitX=1;exitY=0.5;exitDx=0;exitDy=0;entryX=0;entryY=0.5;entryDx=0;entryDy=0;" edge="1" parent="EbevbRiIdhzifkjhd-jo-12" source="QBf7V6UrVG0nwe6GnjbZ-8" target="EbevbRiIdhzifkjhd-jo-3">
          <mxGeometry relative="1" as="geometry" />
        </mxCell>
        <mxCell id="EbevbRiIdhzifkjhd-jo-10" value="No" style="edgeLabel;html=1;align=center;verticalAlign=middle;resizable=0;points=[];" vertex="1" connectable="0" parent="EbevbRiIdhzifkjhd-jo-5">
          <mxGeometry x="-0.0238" y="-1" relative="1" as="geometry">
            <mxPoint as="offset" />
          </mxGeometry>
        </mxCell>
        <mxCell id="QBf7V6UrVG0nwe6GnjbZ-8" value="program == Medicaid" style="rhombus;whiteSpace=wrap;html=1;" vertex="1" parent="EbevbRiIdhzifkjhd-jo-12">
          <mxGeometry x="270" y="180" width="160" height="70" as="geometry" />
        </mxCell>
        <mxCell id="QBf7V6UrVG0nwe6GnjbZ-19" style="edgeStyle=orthogonalEdgeStyle;rounded=0;orthogonalLoop=1;jettySize=auto;html=1;exitX=0.5;exitY=1;exitDx=0;exitDy=0;entryX=0.5;entryY=0;entryDx=0;entryDy=0;" edge="1" parent="EbevbRiIdhzifkjhd-jo-12" source="QBf7V6UrVG0nwe6GnjbZ-9" target="QBf7V6UrVG0nwe6GnjbZ-14">
          <mxGeometry relative="1" as="geometry" />
        </mxCell>
        <mxCell id="QBf7V6UrVG0nwe6GnjbZ-9" value="Click Medicare&lt;div&gt;radio box&lt;/div&gt;" style="whiteSpace=wrap;html=1;" vertex="1" parent="EbevbRiIdhzifkjhd-jo-12">
          <mxGeometry x="70" y="320" width="120" height="60" as="geometry" />
        </mxCell>
        <mxCell id="QBf7V6UrVG0nwe6GnjbZ-20" style="edgeStyle=orthogonalEdgeStyle;rounded=0;orthogonalLoop=1;jettySize=auto;html=1;exitX=0.5;exitY=1;exitDx=0;exitDy=0;" edge="1" parent="EbevbRiIdhzifkjhd-jo-12" source="QBf7V6UrVG0nwe6GnjbZ-11">
          <mxGeometry relative="1" as="geometry">
            <mxPoint x="350" y="420" as="targetPoint" />
            <Array as="points">
              <mxPoint x="350" y="420" />
            </Array>
          </mxGeometry>
        </mxCell>
        <mxCell id="QBf7V6UrVG0nwe6GnjbZ-11" value="Click Mediacaid&lt;div&gt;radio box&lt;/div&gt;" style="whiteSpace=wrap;html=1;" vertex="1" parent="EbevbRiIdhzifkjhd-jo-12">
          <mxGeometry x="290" y="320" width="120" height="60" as="geometry" />
        </mxCell>
        <mxCell id="QBf7V6UrVG0nwe6GnjbZ-14" value="" style="ellipse;whiteSpace=wrap;html=1;aspect=fixed;fillColor=#f8cecc;strokeColor=#b85450;" vertex="1" parent="EbevbRiIdhzifkjhd-jo-12">
          <mxGeometry x="120" y="440" width="20" height="20" as="geometry" />
        </mxCell>
        <mxCell id="QBf7V6UrVG0nwe6GnjbZ-18" style="edgeStyle=orthogonalEdgeStyle;rounded=0;orthogonalLoop=1;jettySize=auto;html=1;exitX=0.5;exitY=1;exitDx=0;exitDy=0;" edge="1" parent="EbevbRiIdhzifkjhd-jo-12" source="QBf7V6UrVG0nwe6GnjbZ-15">
          <mxGeometry relative="1" as="geometry">
            <mxPoint x="779.83" y="420" as="targetPoint" />
          </mxGeometry>
        </mxCell>
        <mxCell id="QBf7V6UrVG0nwe6GnjbZ-15" value="Return Failed" style="whiteSpace=wrap;html=1;" vertex="1" parent="EbevbRiIdhzifkjhd-jo-12">
          <mxGeometry x="719.83" y="320" width="120" height="60" as="geometry" />
        </mxCell>
        <mxCell id="EbevbRiIdhzifkjhd-jo-1" value="" style="edgeStyle=orthogonalEdgeStyle;rounded=0;orthogonalLoop=1;jettySize=auto;html=1;" edge="1" parent="EbevbRiIdhzifkjhd-jo-12" source="EbevbRiIdhzifkjhd-jo-3" target="EbevbRiIdhzifkjhd-jo-4">
          <mxGeometry relative="1" as="geometry" />
        </mxCell>
        <mxCell id="EbevbRiIdhzifkjhd-jo-2" value="Yes" style="edgeLabel;html=1;align=center;verticalAlign=middle;resizable=0;points=[];" vertex="1" connectable="0" parent="EbevbRiIdhzifkjhd-jo-1">
          <mxGeometry x="-0.5113" y="1" relative="1" as="geometry">
            <mxPoint as="offset" />
          </mxGeometry>
        </mxCell>
        <mxCell id="EbevbRiIdhzifkjhd-jo-8" style="edgeStyle=orthogonalEdgeStyle;rounded=0;orthogonalLoop=1;jettySize=auto;html=1;exitX=1;exitY=0.5;exitDx=0;exitDy=0;entryX=0.5;entryY=0;entryDx=0;entryDy=0;" edge="1" parent="EbevbRiIdhzifkjhd-jo-12" source="EbevbRiIdhzifkjhd-jo-3" target="QBf7V6UrVG0nwe6GnjbZ-15">
          <mxGeometry relative="1" as="geometry" />
        </mxCell>
        <mxCell id="EbevbRiIdhzifkjhd-jo-9" value="No" style="edgeLabel;html=1;align=center;verticalAlign=middle;resizable=0;points=[];" vertex="1" connectable="0" parent="EbevbRiIdhzifkjhd-jo-8">
          <mxGeometry x="-0.2178" y="2" relative="1" as="geometry">
            <mxPoint as="offset" />
          </mxGeometry>
        </mxCell>
        <mxCell id="EbevbRiIdhzifkjhd-jo-3" value="program == None" style="rhombus;whiteSpace=wrap;html=1;" vertex="1" parent="EbevbRiIdhzifkjhd-jo-12">
          <mxGeometry x="489.83" y="180" width="160" height="70" as="geometry" />
        </mxCell>
        <mxCell id="EbevbRiIdhzifkjhd-jo-6" style="edgeStyle=orthogonalEdgeStyle;rounded=0;orthogonalLoop=1;jettySize=auto;html=1;exitX=0.5;exitY=1;exitDx=0;exitDy=0;" edge="1" parent="EbevbRiIdhzifkjhd-jo-12" source="EbevbRiIdhzifkjhd-jo-4">
          <mxGeometry relative="1" as="geometry">
            <mxPoint x="569.83" y="420" as="targetPoint" />
          </mxGeometry>
        </mxCell>
        <mxCell id="EbevbRiIdhzifkjhd-jo-4" value="Click None&lt;div&gt;radio box&lt;/div&gt;" style="whiteSpace=wrap;html=1;" vertex="1" parent="EbevbRiIdhzifkjhd-jo-12">
          <mxGeometry x="509.83000000000004" y="320" width="120" height="60" as="geometry" />
        </mxCell>
        <mxCell id="EbevbRiIdhzifkjhd-jo-11" value="" style="endArrow=classic;html=1;rounded=0;" edge="1" parent="EbevbRiIdhzifkjhd-jo-12">
          <mxGeometry width="50" height="50" relative="1" as="geometry">
            <mxPoint x="780" y="420" as="sourcePoint" />
            <mxPoint x="130" y="420" as="targetPoint" />
          </mxGeometry>
        </mxCell>
      </root>
    </mxGraphModel>
  </diagram>
  <diagram id="r6rl52BKpBEXIyafgl71" name="Enter Visit Date and Comment">
    <mxGraphModel dx="1190" dy="708" grid="1" gridSize="10" guides="1" tooltips="1" connect="1" arrows="1" fold="1" page="1" pageScale="1" pageWidth="850" pageHeight="1100" math="0" shadow="0">
      <root>
        <mxCell id="0" />
        <mxCell id="1" parent="0" />
        <mxCell id="bkOiB8wL6D2U_eY_N_-T-16" value="Enter Comment" style="swimlane;whiteSpace=wrap;html=1;" vertex="1" parent="1">
          <mxGeometry x="450" y="100" width="200" height="320" as="geometry" />
        </mxCell>
        <mxCell id="bkOiB8wL6D2U_eY_N_-T-8" value="" style="edgeStyle=orthogonalEdgeStyle;rounded=0;orthogonalLoop=1;jettySize=auto;html=1;" edge="1" parent="bkOiB8wL6D2U_eY_N_-T-16" source="bkOiB8wL6D2U_eY_N_-T-9" target="bkOiB8wL6D2U_eY_N_-T-11">
          <mxGeometry relative="1" as="geometry" />
        </mxCell>
        <mxCell id="bkOiB8wL6D2U_eY_N_-T-9" value="" style="ellipse;whiteSpace=wrap;html=1;aspect=fixed;fillColor=#d5e8d4;strokeColor=#82b366;" vertex="1" parent="bkOiB8wL6D2U_eY_N_-T-16">
          <mxGeometry x="90" y="40" width="20" height="20" as="geometry" />
        </mxCell>
        <mxCell id="bkOiB8wL6D2U_eY_N_-T-10" value="" style="edgeStyle=orthogonalEdgeStyle;rounded=0;orthogonalLoop=1;jettySize=auto;html=1;" edge="1" parent="bkOiB8wL6D2U_eY_N_-T-16" source="bkOiB8wL6D2U_eY_N_-T-11" target="bkOiB8wL6D2U_eY_N_-T-13">
          <mxGeometry relative="1" as="geometry" />
        </mxCell>
        <mxCell id="bkOiB8wL6D2U_eY_N_-T-11" value="comment" style="shape=parallelogram;perimeter=parallelogramPerimeter;whiteSpace=wrap;html=1;fixedSize=1;" vertex="1" parent="bkOiB8wL6D2U_eY_N_-T-16">
          <mxGeometry x="40" y="90" width="120" height="40" as="geometry" />
        </mxCell>
        <mxCell id="bkOiB8wL6D2U_eY_N_-T-12" style="edgeStyle=orthogonalEdgeStyle;rounded=0;orthogonalLoop=1;jettySize=auto;html=1;exitX=0.5;exitY=1;exitDx=0;exitDy=0;entryX=0.5;entryY=0;entryDx=0;entryDy=0;" edge="1" parent="bkOiB8wL6D2U_eY_N_-T-16" source="bkOiB8wL6D2U_eY_N_-T-13" target="bkOiB8wL6D2U_eY_N_-T-14">
          <mxGeometry relative="1" as="geometry" />
        </mxCell>
        <mxCell id="bkOiB8wL6D2U_eY_N_-T-13" value="Enter comment into Comment textbox" style="whiteSpace=wrap;html=1;" vertex="1" parent="bkOiB8wL6D2U_eY_N_-T-16">
          <mxGeometry x="40" y="170" width="120" height="60" as="geometry" />
        </mxCell>
        <mxCell id="bkOiB8wL6D2U_eY_N_-T-14" value="" style="ellipse;whiteSpace=wrap;html=1;aspect=fixed;fillColor=#f8cecc;strokeColor=#b85450;" vertex="1" parent="bkOiB8wL6D2U_eY_N_-T-16">
          <mxGeometry x="90" y="260" width="20" height="20" as="geometry" />
        </mxCell>
        <mxCell id="bkOiB8wL6D2U_eY_N_-T-17" value="Enter Visit Date" style="swimlane;whiteSpace=wrap;html=1;" vertex="1" parent="1">
          <mxGeometry x="130" y="100" width="200" height="320" as="geometry" />
        </mxCell>
        <mxCell id="bkOiB8wL6D2U_eY_N_-T-1" value="" style="edgeStyle=orthogonalEdgeStyle;rounded=0;orthogonalLoop=1;jettySize=auto;html=1;" edge="1" parent="bkOiB8wL6D2U_eY_N_-T-17" source="bkOiB8wL6D2U_eY_N_-T-2" target="bkOiB8wL6D2U_eY_N_-T-3">
          <mxGeometry relative="1" as="geometry" />
        </mxCell>
        <mxCell id="bkOiB8wL6D2U_eY_N_-T-2" value="" style="ellipse;whiteSpace=wrap;html=1;aspect=fixed;fillColor=#d5e8d4;strokeColor=#82b366;" vertex="1" parent="bkOiB8wL6D2U_eY_N_-T-17">
          <mxGeometry x="90" y="40" width="20" height="20" as="geometry" />
        </mxCell>
        <mxCell id="bkOiB8wL6D2U_eY_N_-T-5" value="" style="edgeStyle=orthogonalEdgeStyle;rounded=0;orthogonalLoop=1;jettySize=auto;html=1;" edge="1" parent="bkOiB8wL6D2U_eY_N_-T-17" source="bkOiB8wL6D2U_eY_N_-T-3" target="bkOiB8wL6D2U_eY_N_-T-4">
          <mxGeometry relative="1" as="geometry" />
        </mxCell>
        <mxCell id="bkOiB8wL6D2U_eY_N_-T-3" value="date" style="shape=parallelogram;perimeter=parallelogramPerimeter;whiteSpace=wrap;html=1;fixedSize=1;" vertex="1" parent="bkOiB8wL6D2U_eY_N_-T-17">
          <mxGeometry x="40" y="90" width="120" height="40" as="geometry" />
        </mxCell>
        <mxCell id="bkOiB8wL6D2U_eY_N_-T-7" style="edgeStyle=orthogonalEdgeStyle;rounded=0;orthogonalLoop=1;jettySize=auto;html=1;exitX=0.5;exitY=1;exitDx=0;exitDy=0;entryX=0.5;entryY=0;entryDx=0;entryDy=0;" edge="1" parent="bkOiB8wL6D2U_eY_N_-T-17" source="bkOiB8wL6D2U_eY_N_-T-4" target="bkOiB8wL6D2U_eY_N_-T-6">
          <mxGeometry relative="1" as="geometry" />
        </mxCell>
        <mxCell id="bkOiB8wL6D2U_eY_N_-T-4" value="Enter date into Visit Date textbox" style="whiteSpace=wrap;html=1;" vertex="1" parent="bkOiB8wL6D2U_eY_N_-T-17">
          <mxGeometry x="40" y="170" width="120" height="60" as="geometry" />
        </mxCell>
        <mxCell id="bkOiB8wL6D2U_eY_N_-T-6" value="" style="ellipse;whiteSpace=wrap;html=1;aspect=fixed;fillColor=#f8cecc;strokeColor=#b85450;" vertex="1" parent="bkOiB8wL6D2U_eY_N_-T-17">
          <mxGeometry x="90" y="260" width="20" height="20" as="geometry" />
        </mxCell>
      </root>
    </mxGraphModel>
  </diagram>
  <diagram id="1OFj_Y3_aHGQgcxev5W_" name="Verify appointment is correct">
    <mxGraphModel dx="816" dy="485" grid="1" gridSize="10" guides="1" tooltips="1" connect="1" arrows="1" fold="1" page="1" pageScale="1" pageWidth="850" pageHeight="1100" math="0" shadow="0">
      <root>
        <mxCell id="0" />
        <mxCell id="1" parent="0" />
        <mxCell id="eoJIvk_GMdiT0WRAXHm4-1" value="" style="edgeStyle=orthogonalEdgeStyle;rounded=0;orthogonalLoop=1;jettySize=auto;html=1;" edge="1" parent="1" source="eoJIvk_GMdiT0WRAXHm4-2" target="eoJIvk_GMdiT0WRAXHm4-3">
          <mxGeometry relative="1" as="geometry" />
        </mxCell>
        <mxCell id="eoJIvk_GMdiT0WRAXHm4-2" value="" style="ellipse;whiteSpace=wrap;html=1;aspect=fixed;fillColor=#d5e8d4;strokeColor=#82b366;" vertex="1" parent="1">
          <mxGeometry x="190" y="50" width="20" height="20" as="geometry" />
        </mxCell>
        <mxCell id="eoJIvk_GMdiT0WRAXHm4-5" value="" style="edgeStyle=orthogonalEdgeStyle;rounded=0;orthogonalLoop=1;jettySize=auto;html=1;" edge="1" parent="1" source="eoJIvk_GMdiT0WRAXHm4-3" target="eoJIvk_GMdiT0WRAXHm4-4">
          <mxGeometry relative="1" as="geometry" />
        </mxCell>
        <mxCell id="eoJIvk_GMdiT0WRAXHm4-3" value="facility,&amp;nbsp;&lt;div&gt;hospital_readmission,&lt;div&gt;program,&lt;/div&gt;&lt;div&gt;date,&lt;/div&gt;&lt;div&gt;comment&lt;/div&gt;&lt;/div&gt;" style="shape=parallelogram;perimeter=parallelogramPerimeter;whiteSpace=wrap;html=1;fixedSize=1;" vertex="1" parent="1">
          <mxGeometry x="100" y="100" width="200" height="90" as="geometry" />
        </mxCell>
        <mxCell id="eoJIvk_GMdiT0WRAXHm4-7" value="" style="edgeStyle=orthogonalEdgeStyle;rounded=0;orthogonalLoop=1;jettySize=auto;html=1;" edge="1" parent="1" source="eoJIvk_GMdiT0WRAXHm4-4" target="eoJIvk_GMdiT0WRAXHm4-6">
          <mxGeometry relative="1" as="geometry" />
        </mxCell>
        <UserObject label="Get Expected &amp;nbsp;Appointment&amp;nbsp;Information" link="data:page/id,7N8zkh5a5Ml7sd_Rut1X" id="eoJIvk_GMdiT0WRAXHm4-4">
          <mxCell style="whiteSpace=wrap;html=1;" vertex="1" parent="1">
            <mxGeometry x="110" y="220" width="180" height="60" as="geometry" />
          </mxCell>
        </UserObject>
        <mxCell id="eoJIvk_GMdiT0WRAXHm4-11" value="" style="edgeStyle=orthogonalEdgeStyle;rounded=0;orthogonalLoop=1;jettySize=auto;html=1;" edge="1" parent="1" source="eoJIvk_GMdiT0WRAXHm4-6" target="eoJIvk_GMdiT0WRAXHm4-10">
          <mxGeometry relative="1" as="geometry" />
        </mxCell>
        <UserObject label="Get Actual &amp;nbsp;Appointment&amp;nbsp;Information" link="data:page/id,tmm73okhmz5xWSSeeBFf" id="eoJIvk_GMdiT0WRAXHm4-6">
          <mxCell style="whiteSpace=wrap;html=1;" vertex="1" parent="1">
            <mxGeometry x="110" y="320" width="180" height="60" as="geometry" />
          </mxCell>
        </UserObject>
        <mxCell id="eoJIvk_GMdiT0WRAXHm4-16" value="" style="edgeStyle=orthogonalEdgeStyle;rounded=0;orthogonalLoop=1;jettySize=auto;html=1;" edge="1" parent="1" source="eoJIvk_GMdiT0WRAXHm4-10" target="eoJIvk_GMdiT0WRAXHm4-15">
          <mxGeometry relative="1" as="geometry" />
        </mxCell>
        <mxCell id="eoJIvk_GMdiT0WRAXHm4-24" value="Yes" style="edgeLabel;html=1;align=center;verticalAlign=middle;resizable=0;points=[];" vertex="1" connectable="0" parent="eoJIvk_GMdiT0WRAXHm4-16">
          <mxGeometry x="0.1133" y="3" relative="1" as="geometry">
            <mxPoint as="offset" />
          </mxGeometry>
        </mxCell>
        <mxCell id="eoJIvk_GMdiT0WRAXHm4-18" value="" style="edgeStyle=orthogonalEdgeStyle;rounded=0;orthogonalLoop=1;jettySize=auto;html=1;" edge="1" parent="1" source="eoJIvk_GMdiT0WRAXHm4-10" target="eoJIvk_GMdiT0WRAXHm4-17">
          <mxGeometry relative="1" as="geometry" />
        </mxCell>
        <mxCell id="eoJIvk_GMdiT0WRAXHm4-23" value="No" style="edgeLabel;html=1;align=center;verticalAlign=middle;resizable=0;points=[];" vertex="1" connectable="0" parent="eoJIvk_GMdiT0WRAXHm4-18">
          <mxGeometry x="0.3333" relative="1" as="geometry">
            <mxPoint x="-17" as="offset" />
          </mxGeometry>
        </mxCell>
        <mxCell id="eoJIvk_GMdiT0WRAXHm4-10" value="Actual Information == Expectec Information" style="rhombus;whiteSpace=wrap;html=1;" vertex="1" parent="1">
          <mxGeometry x="120" y="410" width="160" height="80" as="geometry" />
        </mxCell>
        <mxCell id="eoJIvk_GMdiT0WRAXHm4-21" style="edgeStyle=orthogonalEdgeStyle;rounded=0;orthogonalLoop=1;jettySize=auto;html=1;exitX=0.5;exitY=1;exitDx=0;exitDy=0;entryX=0.5;entryY=0;entryDx=0;entryDy=0;" edge="1" parent="1" source="eoJIvk_GMdiT0WRAXHm4-15" target="eoJIvk_GMdiT0WRAXHm4-20">
          <mxGeometry relative="1" as="geometry" />
        </mxCell>
        <mxCell id="eoJIvk_GMdiT0WRAXHm4-15" value="Return Passed" style="whiteSpace=wrap;html=1;" vertex="1" parent="1">
          <mxGeometry x="140" y="540" width="120" height="40" as="geometry" />
        </mxCell>
        <mxCell id="eoJIvk_GMdiT0WRAXHm4-22" style="edgeStyle=orthogonalEdgeStyle;rounded=0;orthogonalLoop=1;jettySize=auto;html=1;exitX=0.5;exitY=1;exitDx=0;exitDy=0;" edge="1" parent="1" source="eoJIvk_GMdiT0WRAXHm4-17">
          <mxGeometry relative="1" as="geometry">
            <mxPoint x="200" y="620" as="targetPoint" />
            <Array as="points">
              <mxPoint x="400" y="620" />
              <mxPoint x="200" y="620" />
            </Array>
          </mxGeometry>
        </mxCell>
        <mxCell id="eoJIvk_GMdiT0WRAXHm4-17" value="Return Failed" style="whiteSpace=wrap;html=1;" vertex="1" parent="1">
          <mxGeometry x="365" y="430" width="120" height="40" as="geometry" />
        </mxCell>
        <mxCell id="eoJIvk_GMdiT0WRAXHm4-20" value="" style="ellipse;whiteSpace=wrap;html=1;aspect=fixed;fillColor=#f8cecc;strokeColor=#b85450;" vertex="1" parent="1">
          <mxGeometry x="190" y="660" width="20" height="20" as="geometry" />
        </mxCell>
      </root>
    </mxGraphModel>
  </diagram>
  <diagram id="7N8zkh5a5Ml7sd_Rut1X" name="Get Expected Appointment Information">
    <mxGraphModel dx="1428" dy="849" grid="1" gridSize="10" guides="1" tooltips="1" connect="1" arrows="1" fold="1" page="1" pageScale="1" pageWidth="850" pageHeight="1100" math="0" shadow="0">
      <root>
        <mxCell id="0" />
        <mxCell id="1" parent="0" />
        <mxCell id="5_BSODXNe78wvYZu31u3-1" value="Get Expected Appointment Information" style="swimlane;whiteSpace=wrap;html=1;" vertex="1" parent="1">
          <mxGeometry x="180" y="100" width="560" height="820" as="geometry" />
        </mxCell>
        <mxCell id="_pOrnUtRUzr0zrN0gJDe-1" value="" style="edgeStyle=orthogonalEdgeStyle;rounded=0;orthogonalLoop=1;jettySize=auto;html=1;" edge="1" parent="5_BSODXNe78wvYZu31u3-1" source="_pOrnUtRUzr0zrN0gJDe-2" target="_pOrnUtRUzr0zrN0gJDe-3">
          <mxGeometry relative="1" as="geometry" />
        </mxCell>
        <mxCell id="_pOrnUtRUzr0zrN0gJDe-2" value="" style="ellipse;whiteSpace=wrap;html=1;aspect=fixed;fillColor=#d5e8d4;strokeColor=#82b366;" vertex="1" parent="5_BSODXNe78wvYZu31u3-1">
          <mxGeometry x="150" y="50" width="20" height="20" as="geometry" />
        </mxCell>
        <mxCell id="SZZVtekqUUQo3woBeI-Z-2" value="" style="edgeStyle=orthogonalEdgeStyle;rounded=0;orthogonalLoop=1;jettySize=auto;html=1;" edge="1" parent="5_BSODXNe78wvYZu31u3-1" source="_pOrnUtRUzr0zrN0gJDe-3" target="SZZVtekqUUQo3woBeI-Z-1">
          <mxGeometry relative="1" as="geometry" />
        </mxCell>
        <mxCell id="_pOrnUtRUzr0zrN0gJDe-3" value="facility,&amp;nbsp;&lt;div&gt;hospital_readmission,&lt;div&gt;program,&lt;/div&gt;&lt;div&gt;date,&lt;/div&gt;&lt;div&gt;comment&lt;/div&gt;&lt;/div&gt;" style="shape=parallelogram;perimeter=parallelogramPerimeter;whiteSpace=wrap;html=1;fixedSize=1;" vertex="1" parent="5_BSODXNe78wvYZu31u3-1">
          <mxGeometry x="60" y="100" width="200" height="90" as="geometry" />
        </mxCell>
        <mxCell id="WMCcguALYAjGNujI4HmL-2" value="" style="edgeStyle=orthogonalEdgeStyle;rounded=0;orthogonalLoop=1;jettySize=auto;html=1;" edge="1" parent="5_BSODXNe78wvYZu31u3-1" source="SZZVtekqUUQo3woBeI-Z-1" target="WMCcguALYAjGNujI4HmL-1">
          <mxGeometry relative="1" as="geometry" />
        </mxCell>
        <mxCell id="WMCcguALYAjGNujI4HmL-6" value="No" style="edgeLabel;html=1;align=center;verticalAlign=middle;resizable=0;points=[];" vertex="1" connectable="0" parent="WMCcguALYAjGNujI4HmL-2">
          <mxGeometry x="-0.3273" y="3" relative="1" as="geometry">
            <mxPoint as="offset" />
          </mxGeometry>
        </mxCell>
        <mxCell id="WMCcguALYAjGNujI4HmL-4" value="" style="edgeStyle=orthogonalEdgeStyle;rounded=0;orthogonalLoop=1;jettySize=auto;html=1;" edge="1" parent="5_BSODXNe78wvYZu31u3-1" source="SZZVtekqUUQo3woBeI-Z-1" target="WMCcguALYAjGNujI4HmL-3">
          <mxGeometry relative="1" as="geometry" />
        </mxCell>
        <mxCell id="WMCcguALYAjGNujI4HmL-5" value="Yes" style="edgeLabel;html=1;align=center;verticalAlign=middle;resizable=0;points=[];" vertex="1" connectable="0" parent="WMCcguALYAjGNujI4HmL-4">
          <mxGeometry x="-0.26" relative="1" as="geometry">
            <mxPoint as="offset" />
          </mxGeometry>
        </mxCell>
        <mxCell id="SZZVtekqUUQo3woBeI-Z-1" value="Format of date is correct" style="rhombus;whiteSpace=wrap;html=1;" vertex="1" parent="5_BSODXNe78wvYZu31u3-1">
          <mxGeometry x="50" y="240" width="220" height="65" as="geometry" />
        </mxCell>
        <mxCell id="WMCcguALYAjGNujI4HmL-13" style="edgeStyle=orthogonalEdgeStyle;rounded=0;orthogonalLoop=1;jettySize=auto;html=1;exitX=0.5;exitY=1;exitDx=0;exitDy=0;" edge="1" parent="5_BSODXNe78wvYZu31u3-1" source="WMCcguALYAjGNujI4HmL-1">
          <mxGeometry relative="1" as="geometry">
            <mxPoint x="160" y="450" as="targetPoint" />
            <Array as="points">
              <mxPoint x="450" y="450" />
            </Array>
          </mxGeometry>
        </mxCell>
        <mxCell id="WMCcguALYAjGNujI4HmL-1" value="Set&amp;nbsp;&lt;div&gt;expected_date = current_date&lt;/div&gt;" style="whiteSpace=wrap;html=1;" vertex="1" parent="5_BSODXNe78wvYZu31u3-1">
          <mxGeometry x="360" y="246.25" width="180" height="52.5" as="geometry" />
        </mxCell>
        <mxCell id="WMCcguALYAjGNujI4HmL-8" value="" style="edgeStyle=orthogonalEdgeStyle;rounded=0;orthogonalLoop=1;jettySize=auto;html=1;" edge="1" parent="5_BSODXNe78wvYZu31u3-1" source="WMCcguALYAjGNujI4HmL-3" target="WMCcguALYAjGNujI4HmL-7">
          <mxGeometry relative="1" as="geometry" />
        </mxCell>
        <mxCell id="WMCcguALYAjGNujI4HmL-3" value="&lt;div&gt;Set&lt;/div&gt;expected_date = date" style="whiteSpace=wrap;html=1;" vertex="1" parent="5_BSODXNe78wvYZu31u3-1">
          <mxGeometry x="90" y="370" width="140" height="40" as="geometry" />
        </mxCell>
        <mxCell id="WMCcguALYAjGNujI4HmL-10" value="" style="edgeStyle=orthogonalEdgeStyle;rounded=0;orthogonalLoop=1;jettySize=auto;html=1;" edge="1" parent="5_BSODXNe78wvYZu31u3-1" source="WMCcguALYAjGNujI4HmL-7" target="WMCcguALYAjGNujI4HmL-9">
          <mxGeometry relative="1" as="geometry" />
        </mxCell>
        <mxCell id="WMCcguALYAjGNujI4HmL-7" value="Create dictionary&amp;nbsp;&lt;div&gt;expected_information=&lt;/div&gt;&lt;div&gt;{Facility : facility&lt;/div&gt;&lt;div&gt;Hospital Readmission: readmission&lt;/div&gt;&lt;div&gt;Program : program&lt;/div&gt;&lt;div&gt;Date : expected_date&lt;/div&gt;&lt;div&gt;Comment : comment}&lt;/div&gt;" style="whiteSpace=wrap;html=1;" vertex="1" parent="5_BSODXNe78wvYZu31u3-1">
          <mxGeometry x="50" y="480" width="220" height="130" as="geometry" />
        </mxCell>
        <mxCell id="WMCcguALYAjGNujI4HmL-12" style="edgeStyle=orthogonalEdgeStyle;rounded=0;orthogonalLoop=1;jettySize=auto;html=1;exitX=0.5;exitY=1;exitDx=0;exitDy=0;entryX=0.5;entryY=0;entryDx=0;entryDy=0;" edge="1" parent="5_BSODXNe78wvYZu31u3-1" source="WMCcguALYAjGNujI4HmL-9" target="WMCcguALYAjGNujI4HmL-11">
          <mxGeometry relative="1" as="geometry" />
        </mxCell>
        <mxCell id="WMCcguALYAjGNujI4HmL-9" value="Return expected_information" style="whiteSpace=wrap;html=1;" vertex="1" parent="5_BSODXNe78wvYZu31u3-1">
          <mxGeometry x="90" y="650" width="140" height="60" as="geometry" />
        </mxCell>
        <mxCell id="WMCcguALYAjGNujI4HmL-11" value="" style="ellipse;whiteSpace=wrap;html=1;aspect=fixed;fillColor=#f8cecc;strokeColor=#b85450;" vertex="1" parent="5_BSODXNe78wvYZu31u3-1">
          <mxGeometry x="150" y="750" width="20" height="20" as="geometry" />
        </mxCell>
      </root>
    </mxGraphModel>
  </diagram>
  <diagram id="tmm73okhmz5xWSSeeBFf" name="Get Actual Appointment Information">
    <mxGraphModel dx="1428" dy="849" grid="1" gridSize="10" guides="1" tooltips="1" connect="1" arrows="1" fold="1" page="1" pageScale="1" pageWidth="850" pageHeight="1100" math="0" shadow="0">
      <root>
        <mxCell id="0" />
        <mxCell id="1" parent="0" />
        <mxCell id="yVBMNgVV7MPeDtzuECvC-1" value="Get Actual&amp;nbsp;Appointment Information" style="swimlane;whiteSpace=wrap;html=1;" vertex="1" parent="1">
          <mxGeometry x="220" y="120" width="410" height="590" as="geometry" />
        </mxCell>
        <mxCell id="LjjQi9erNWnXandqcEwv-4" value="" style="edgeStyle=orthogonalEdgeStyle;rounded=0;orthogonalLoop=1;jettySize=auto;html=1;" edge="1" parent="yVBMNgVV7MPeDtzuECvC-1" source="LjjQi9erNWnXandqcEwv-2" target="LjjQi9erNWnXandqcEwv-3">
          <mxGeometry relative="1" as="geometry" />
        </mxCell>
        <mxCell id="LjjQi9erNWnXandqcEwv-2" value="" style="ellipse;whiteSpace=wrap;html=1;aspect=fixed;fillColor=#d5e8d4;strokeColor=#82b366;" vertex="1" parent="yVBMNgVV7MPeDtzuECvC-1">
          <mxGeometry x="190" y="60" width="20" height="20" as="geometry" />
        </mxCell>
        <mxCell id="v4grtwTEjFg4mdoaMCcu-2" style="edgeStyle=orthogonalEdgeStyle;rounded=0;orthogonalLoop=1;jettySize=auto;html=1;exitX=0.5;exitY=1;exitDx=0;exitDy=0;entryX=0.5;entryY=0;entryDx=0;entryDy=0;" edge="1" parent="yVBMNgVV7MPeDtzuECvC-1" source="LjjQi9erNWnXandqcEwv-3" target="v4grtwTEjFg4mdoaMCcu-1">
          <mxGeometry relative="1" as="geometry" />
        </mxCell>
        <mxCell id="LjjQi9erNWnXandqcEwv-3" value="Get Appointment Information by Get Text" style="whiteSpace=wrap;html=1;" vertex="1" parent="yVBMNgVV7MPeDtzuECvC-1">
          <mxGeometry x="120" y="110" width="160" height="50" as="geometry" />
        </mxCell>
        <mxCell id="v4grtwTEjFg4mdoaMCcu-4" value="" style="edgeStyle=orthogonalEdgeStyle;rounded=0;orthogonalLoop=1;jettySize=auto;html=1;" edge="1" parent="yVBMNgVV7MPeDtzuECvC-1" source="v4grtwTEjFg4mdoaMCcu-1" target="v4grtwTEjFg4mdoaMCcu-3">
          <mxGeometry relative="1" as="geometry" />
        </mxCell>
        <mxCell id="v4grtwTEjFg4mdoaMCcu-1" value="Create dictionary&amp;nbsp;&lt;div&gt;actual_information=&lt;/div&gt;&lt;div&gt;{Facility : actual_facility&lt;/div&gt;&lt;div&gt;Hospital Readmission: actual_readmission&lt;/div&gt;&lt;div&gt;Program : actual_program&lt;/div&gt;&lt;div&gt;Date : actual_date&lt;/div&gt;&lt;div&gt;Comment : actual_comment}&lt;/div&gt;" style="whiteSpace=wrap;html=1;" vertex="1" parent="yVBMNgVV7MPeDtzuECvC-1">
          <mxGeometry x="50" y="210" width="300" height="130" as="geometry" />
        </mxCell>
        <mxCell id="v4grtwTEjFg4mdoaMCcu-6" style="edgeStyle=orthogonalEdgeStyle;rounded=0;orthogonalLoop=1;jettySize=auto;html=1;exitX=0.5;exitY=1;exitDx=0;exitDy=0;entryX=0.5;entryY=0;entryDx=0;entryDy=0;" edge="1" parent="yVBMNgVV7MPeDtzuECvC-1" source="v4grtwTEjFg4mdoaMCcu-3" target="v4grtwTEjFg4mdoaMCcu-5">
          <mxGeometry relative="1" as="geometry" />
        </mxCell>
        <mxCell id="v4grtwTEjFg4mdoaMCcu-3" value="Return actual_information" style="whiteSpace=wrap;html=1;" vertex="1" parent="yVBMNgVV7MPeDtzuECvC-1">
          <mxGeometry x="140" y="390" width="120" height="60" as="geometry" />
        </mxCell>
        <mxCell id="v4grtwTEjFg4mdoaMCcu-5" value="" style="ellipse;whiteSpace=wrap;html=1;aspect=fixed;fillColor=#f8cecc;strokeColor=#b85450;" vertex="1" parent="yVBMNgVV7MPeDtzuECvC-1">
          <mxGeometry x="190" y="490" width="20" height="20" as="geometry" />
        </mxCell>
      </root>
    </mxGraphModel>
  </diagram>
</mxfile>
